<svg width="20" height="20" viewBox="0 0 20 20" fill="none" xmlns="http://www.w3.org/2000/svg">
<path d="M18.9809 10.8091C18.8236 12.5113 18.1848 14.1335 17.1392 15.4859C16.0936 16.8383 14.6844 17.8649 13.0766 18.4456C11.4688 19.0264 9.7289 19.1372 8.06042 18.7652C6.39194 18.3932 4.86391 17.5536 3.65514 16.3449C2.44638 15.1361 1.60686 13.6081 1.23483 11.9396C0.862795 10.2711 0.973635 8.53118 1.55438 6.92339C2.13512 5.3156 3.16175 3.90646 4.51413 2.86085C5.86651 1.81523 7.48872 1.1764 9.19092 1.01909C8.19433 2.36736 7.71477 4.02854 7.83945 5.70051C7.96413 7.37247 8.68478 8.94415 9.87032 10.1297C11.0559 11.3152 12.6275 12.0359 14.2995 12.1606C15.9715 12.2852 17.6327 11.8057 18.9809 10.8091Z" stroke="#0A7F99" stroke-width="2" stroke-linecap="round" stroke-linejoin="round"/>
</svg>
