<svg width="134" height="52" viewBox="0 0 134 52" fill="none" xmlns="http://www.w3.org/2000/svg">
<path d="M31.3135 43.13C30.3819 43.13 29.5737 42.9155 28.889 42.4865C28.2044 42.0532 27.6757 41.4595 27.303 40.7055C26.9304 39.9515 26.744 39.0913 26.744 38.125C26.744 37.1587 26.9304 36.2985 27.303 35.5445C27.6757 34.7905 28.2044 34.199 28.889 33.77C29.5737 33.3367 30.3819 33.12 31.3135 33.12C31.7252 33.12 32.113 33.1915 32.477 33.3345C32.841 33.4775 33.166 33.6768 33.452 33.9325L34.362 33.25H34.557V36.032H34.3295C34.2255 35.5033 34.0349 35.0418 33.7575 34.6475C33.4802 34.2532 33.1422 33.9477 32.7435 33.731C32.3492 33.51 31.9159 33.3995 31.4435 33.3995C30.9279 33.3995 30.4945 33.5338 30.1435 33.8025C29.7925 34.0668 29.5109 34.4243 29.2985 34.875C29.0905 35.3257 28.9389 35.8327 28.8435 36.396C28.7482 36.9593 28.7005 37.5357 28.7005 38.125C28.7005 38.7143 28.7482 39.2907 28.8435 39.854C28.9389 40.4173 29.0905 40.9243 29.2985 41.375C29.5109 41.8257 29.7925 42.1853 30.1435 42.454C30.4945 42.7183 30.9279 42.8505 31.4435 42.8505C31.8769 42.8505 32.2625 42.7833 32.6005 42.649C32.9429 42.5103 33.2397 42.3218 33.491 42.0835C33.7424 41.8408 33.9482 41.5613 34.1085 41.245C34.2689 40.9243 34.3859 40.582 34.4595 40.218H34.687V43H34.492L33.6535 42.272C33.3632 42.5363 33.0187 42.7465 32.62 42.9025C32.2257 43.0542 31.7902 43.13 31.3135 43.13ZM44.9219 33.25V33.471H43.7519V42.779H44.9219V43H40.8269V42.779H42.0489V38.3005H38.2334V42.779H39.4489V43H35.3539V42.779H36.5239V33.471H35.3539V33.25H39.4489V33.471H38.2334V38.0795H42.0489V33.471H40.8269V33.25H44.9219ZM47.5434 39.945V39.724H51.5994V39.945H47.5434ZM50.3774 33.0615L53.7444 42.779H54.7389V43H50.5529V42.779H51.7749L49.2984 35.135L46.6269 42.779H48.0309V43H45.1709V42.779H46.3669L49.7924 33.0615H50.3774ZM64.5754 33.25V33.471H63.4314L59.9604 43.1885H59.3234L55.9499 33.471H54.9684V33.25H59.2844V33.471H57.9259L60.4284 41.206L63.1779 33.471H61.6049V33.25H64.5754ZM67.1902 39.945V39.724H71.2462V39.945H67.1902ZM70.0242 33.0615L73.3912 42.779H74.3857V43H70.1997V42.779H71.4217L68.9452 35.135L66.2737 42.779H67.6777V43H64.8177V42.779H66.0137L69.4392 33.0615H70.0242ZM76.9747 38.0665V37.93H78.8857C79.3017 37.93 79.6505 37.8498 79.9322 37.6895C80.2182 37.5248 80.4349 37.2778 80.5822 36.9485C80.7295 36.6192 80.8032 36.2053 80.8032 35.707C80.8032 35.2087 80.7295 34.7948 80.5822 34.4655C80.4349 34.1318 80.2182 33.8827 79.9322 33.718C79.6505 33.5533 79.3017 33.471 78.8857 33.471H74.6347V33.25H79.0807C79.774 33.25 80.3807 33.3388 80.9007 33.5165C81.425 33.6898 81.8324 33.9585 82.1227 34.3225C82.4174 34.6822 82.5647 35.1437 82.5647 35.707C82.5647 36.2703 82.4282 36.7253 82.1552 37.072C81.8822 37.4187 81.4857 37.6722 80.9657 37.8325C80.4457 37.9885 79.8174 38.0665 79.0807 38.0665H76.9747ZM74.6347 43V42.779H79.0482V43H74.6347ZM75.9867 42.883V33.3865H77.6897V42.883H75.9867ZM82.2657 43.0845C81.8497 43.0845 81.5225 43.0152 81.2842 42.8765C81.0502 42.7378 80.879 42.5515 80.7707 42.3175C80.6624 42.0835 80.593 41.8213 80.5627 41.531C80.5324 41.2363 80.515 40.933 80.5107 40.621C80.5064 40.309 80.4912 40.0078 80.4652 39.7175C80.4392 39.4228 80.3764 39.1585 80.2767 38.9245C80.177 38.6905 80.0145 38.5042 79.7892 38.3655C79.5682 38.2268 79.2584 38.1575 78.8597 38.1575H76.9747V38.034H79.5877C80.1987 38.034 80.6819 38.1207 81.0372 38.294C81.3969 38.4673 81.6655 38.6948 81.8432 38.9765C82.0209 39.2582 82.14 39.568 82.2007 39.906C82.2614 40.244 82.2917 40.582 82.2917 40.92C82.296 41.258 82.3047 41.57 82.3177 41.856C82.3307 42.1377 82.3762 42.3652 82.4542 42.5385C82.5365 42.7075 82.6904 42.792 82.9157 42.792C83.05 42.792 83.1735 42.7768 83.2862 42.7465C83.3989 42.7162 83.5007 42.6793 83.5917 42.636L83.6697 42.844C83.5657 42.9047 83.388 42.9588 83.1367 43.0065C82.8897 43.0585 82.5994 43.0845 82.2657 43.0845ZM86.1951 38.0665V37.93H88.1061C88.5221 37.93 88.8709 37.8498 89.1526 37.6895C89.4386 37.5248 89.6552 37.2778 89.8026 36.9485C89.9499 36.6192 90.0236 36.2053 90.0236 35.707C90.0236 35.2087 89.9499 34.7948 89.8026 34.4655C89.6552 34.1318 89.4386 33.8827 89.1526 33.718C88.8709 33.5533 88.5221 33.471 88.1061 33.471H83.8551V33.25H88.3011C88.9944 33.25 89.6011 33.3388 90.1211 33.5165C90.6454 33.6898 91.0527 33.9585 91.3431 34.3225C91.6377 34.6822 91.7851 35.1437 91.7851 35.707C91.7851 36.2703 91.6486 36.7253 91.3756 37.072C91.1026 37.4187 90.7061 37.6722 90.1861 37.8325C89.6661 37.9885 89.0377 38.0665 88.3011 38.0665H86.1951ZM83.8551 43V42.779H88.2686V43H83.8551ZM85.2071 42.883V33.3865H86.9101V42.883H85.2071ZM91.4861 43.0845C91.0701 43.0845 90.7429 43.0152 90.5046 42.8765C90.2706 42.7378 90.0994 42.5515 89.9911 42.3175C89.8827 42.0835 89.8134 41.8213 89.7831 41.531C89.7527 41.2363 89.7354 40.933 89.7311 40.621C89.7267 40.309 89.7116 40.0078 89.6856 39.7175C89.6596 39.4228 89.5967 39.1585 89.4971 38.9245C89.3974 38.6905 89.2349 38.5042 89.0096 38.3655C88.7886 38.2268 88.4787 38.1575 88.0801 38.1575H86.1951V38.034H88.8081C89.4191 38.034 89.9022 38.1207 90.2576 38.294C90.6172 38.4673 90.8859 38.6948 91.0636 38.9765C91.2412 39.2582 91.3604 39.568 91.4211 39.906C91.4817 40.244 91.5121 40.582 91.5121 40.92C91.5164 41.258 91.5251 41.57 91.5381 41.856C91.5511 42.1377 91.5966 42.3652 91.6746 42.5385C91.7569 42.7075 91.9107 42.792 92.1361 42.792C92.2704 42.792 92.3939 42.7768 92.5066 42.7465C92.6192 42.7162 92.7211 42.6793 92.8121 42.636L92.8901 42.844C92.7861 42.9047 92.6084 42.9588 92.3571 43.0065C92.1101 43.0585 91.8197 43.0845 91.4861 43.0845ZM93.0754 43V42.779H94.5054V33.471H93.0754V33.25H97.7684V33.471H96.2084V42.779H97.7684V43H93.0754ZM100.39 39.945V39.724H104.446V39.945H100.39ZM103.224 33.0615L106.591 42.779H107.585V43H103.399V42.779H104.621L102.145 35.135L99.4734 42.779H100.877V43H98.0174V42.779H99.2134L102.639 33.0615H103.224Z" fill="#0A7F99"/>
<path d="M65.8904 11.0714L72.8732 22.1524L59.2066 22.2761L65.8904 11.0714Z" fill="#0A7F99"/>
<ellipse cx="5.0488" cy="4.31272" rx="5.0488" ry="4.31272" transform="matrix(0.999959 -0.00905286 0.0134182 0.99991 65.7871 17.3055)" fill="#0A7F99"/>
</svg>
